# xmcd
#
# Track frame offsets: 
#        150
#        14990
#        25087
#        41690
#        48665
#        60007
#        96242
#        111222
#        125625
#        148057
#        161522
#        176782
#        198715
#
# Disc length: 3017 seconds
#
# Revision: 0
# Processed by: cddbd v1.5.2PL0 Copyright (c) Steve Scherf et al.
# Submitted via: ExactAudioCopy v1.3
#
DISCID=be0bc70d
DTITLE=Narciso Yepes - Domenico Scarlatti  Sonaten Sonatas
DYEAR=1900
DGENRE=Classical
TTITLE0=Sonata K.11
TTITLE1=Sonata K.32: Aria
TTITLE2=Sonata K.34: Larghetto
TTITLE3=Sonata K.42: Minuetto
TTITLE4=Sonata K.64: Gavotto
TTITLE5=Sonata K.77: Moderato E Cantabile
TTITLE6=Sonata K.146
TTITLE7=Sonata K.238: Andante
TTITLE8=Sonata K.283: Andante Allegro
TTITLE9=Sonata K.322: Allegro
TTITLE10=Sonata K.377: Allegrissimo
TTITLE11=Sonata K.446: Pastorale
TTITLE12=Sonata K.474: Andante E Cantabile
EXTD=
EXTT0=
EXTT1=
EXTT2=
EXTT3=
EXTT4=
EXTT5=
EXTT6=
EXTT7=
EXTT8=
EXTT9=
EXTT10=
EXTT11=
EXTT12=
PLAYORDER=
